<?xml version="1.0" standalone="no"?><!DOCTYPE svg PUBLIC "-//W3C//DTD SVG 1.1//EN" "http://www.w3.org/Graphics/SVG/1.1/DTD/svg11.dtd"><svg t="1736677112000" class="icon" viewBox="0 0 1024 1024" version="1.1" xmlns="http://www.w3.org/2000/svg" p-id="4275" xmlns:xlink="http://www.w3.org/1999/xlink" width="200" height="200"><path d="M512 685.568c13.312 0 24.576 10.752 24.576 24.576V953.856c0 13.312-10.752 24.576-24.576 24.576-13.312 0-24.576-10.752-24.576-24.576v-244.224c0-13.312 10.752-24.064 24.576-24.064zM340.992 705.024c11.776 6.656 15.872 21.504 8.704 33.28l-121.856 211.456c-6.656 11.776-21.504 15.872-33.28 8.704-11.776-6.656-15.872-21.504-8.704-33.28l121.856-211.456c6.656-11.264 21.504-15.36 33.28-8.704zM682.496 705.024c-11.776 6.656-15.872 21.504-8.704 33.28l121.856 211.456c6.656 11.776 21.504 15.872 33.28 8.704 11.776-6.656 15.872-21.504 8.704-33.28l-121.856-211.456c-6.656-11.264-21.504-15.36-33.28-8.704z" fill="#212429" p-id="4276"></path><path d="M878.08 734.208h-732.16c-67.072 0-121.856-54.784-121.856-121.856V173.056c0-67.072 54.784-121.856 121.856-121.856h732.16c67.072 0 121.856 54.784 121.856 121.856v439.296c0 67.072-54.784 121.856-121.856 121.856z m-732.16-634.368c-40.448 0-73.216 32.768-73.216 73.216v439.296c0 40.448 32.768 73.216 73.216 73.216h732.16c40.448 0 73.216-32.768 73.216-73.216V173.056c0-40.448-32.768-73.216-73.216-73.216h-732.16z" fill="#212429" p-id="4277"></path><path d="M975.872 576.512c-7.168 0-14.336-3.072-19.456-9.728l-225.28-292.352-233.472 292.864c-4.096 5.12-10.24 8.704-16.896 9.216-7.168 0.512-13.312-1.536-18.432-6.144l-197.12-178.688-194.048 178.176c-9.728 9.216-25.088 8.704-34.304-1.536-9.216-9.728-8.704-25.6 1.536-34.304l209.92-193.536c9.216-8.704 23.552-8.704 32.768 0l194.56 176.128 237.056-296.96c4.608-5.632 11.776-9.216 19.456-9.216s14.336 3.584 18.944 9.728l244.736 316.928c8.192 10.752 6.144 26.112-4.608 34.304-5.12 3.584-10.24 5.12-15.36 5.12z" fill="#212429" p-id="4278"></path><path d="M438.784 368.128c-53.76 0-97.792-44.032-97.792-97.792s44.032-97.792 97.792-97.792 97.792 44.032 97.792 97.792-44.032 97.792-97.792 97.792z m0-146.432c-27.136 0-48.64 22.016-48.64 48.64s22.016 48.64 48.64 48.64 48.64-22.016 48.64-48.64-22.016-48.64-48.64-48.64z" fill="#212429" p-id="4279"></path></svg>